<svg xmlns="http://www.w3.org/2000/svg" viewBox="0 0 800 600" width="800" height="600">
  <defs>
    <linearGradient id="sky" x1="0" y1="0" x2="0" y2="1">
      <stop offset="0%" stop-color="#0D1020"/>
      <stop offset="40%" stop-color="#1A2040"/>
      <stop offset="70%" stop-color="#3A3050"/>
      <stop offset="90%" stop-color="#5A4040"/>
      <stop offset="100%" stop-color="#3B2F20"/>
    </linearGradient>
    <filter id="glow"><feGaussianBlur stdDeviation="4"/></filter>
    <filter id="bigglow"><feGaussianBlur stdDeviation="8"/></filter>
  </defs>
  <!-- Dusk sky -->
  <rect width="800" height="600" fill="url(#sky)"/>
  <!-- Stars -->
  <g fill="#FDFBF7" opacity="0.6">
    <circle cx="50" cy="30" r="1.2"/><circle cx="130" cy="15" r="1"/>
    <circle cx="210" cy="50" r="1.5"/><circle cx="295" cy="25" r="1"/>
    <circle cx="375" cy="12" r="1.2"/><circle cx="455" cy="40" r="0.8"/>
    <circle cx="535" cy="18" r="1.5"/><circle cx="615" cy="45" r="1"/>
    <circle cx="695" cy="22" r="1.2"/><circle cx="770" cy="50" r="0.8"/>
    <circle cx="90" cy="88" r="0.8"/><circle cx="185" cy="100" r="1"/>
    <circle cx="340" cy="75" r="0.8"/><circle cx="500" cy="92" r="1.2"/>
    <circle cx="660" cy="82" r="0.8"/>
  </g>
  <!-- Distant horizon/treeline -->
  <path d="M0,360 Q100,330 200,345 Q300,325 400,340 Q500,325 600,340 Q700,328 800,338 L800,390 L0,390Z"
        fill="#1A2018" opacity="0.75"/>
  <!-- Terrace floor -->
  <rect x="0" y="450" width="800" height="150" fill="#2A2015"/>
  <!-- Stone tiles -->
  <g stroke="#1A1510" stroke-width="1.5" fill="none" opacity="0.4">
    <rect x="30" y="460" width="80" height="60" rx="2"/>
    <rect x="120" y="460" width="80" height="60" rx="2"/>
    <rect x="210" y="460" width="80" height="60" rx="2"/>
    <rect x="300" y="460" width="80" height="60" rx="2"/>
    <rect x="390" y="460" width="80" height="60" rx="2"/>
    <rect x="480" y="460" width="80" height="60" rx="2"/>
    <rect x="570" y="460" width="80" height="60" rx="2"/>
    <rect x="660" y="460" width="80" height="60" rx="2"/>
    <rect x="30" y="525" width="80" height="60" rx="2"/>
    <rect x="120" y="525" width="80" height="60" rx="2"/>
    <rect x="210" y="525" width="80" height="60" rx="2"/>
    <rect x="300" y="525" width="80" height="60" rx="2"/>
    <rect x="390" y="525" width="80" height="60" rx="2"/>
    <rect x="480" y="525" width="80" height="60" rx="2"/>
    <rect x="570" y="525" width="80" height="60" rx="2"/>
    <rect x="660" y="525" width="80" height="60" rx="2"/>
  </g>
  <!-- String lights (main catenary) -->
  <!-- Posts -->
  <rect x="80" y="300" width="12" height="155" rx="3" fill="#3B2F20"/>
  <rect x="280" y="290" width="12" height="165" rx="3" fill="#3B2F20"/>
  <rect x="480" y="290" width="12" height="165" rx="3" fill="#3B2F20"/>
  <rect x="680" y="298" width="12" height="157" rx="3" fill="#3B2F20"/>
  <!-- Light strings -->
  <path d="M86,310 Q183,338 286,305" stroke="#C4A26E" stroke-width="1.5" fill="none" opacity="0.7"/>
  <path d="M286,300 Q384,328 486,296" stroke="#C4A26E" stroke-width="1.5" fill="none" opacity="0.7"/>
  <path d="M486,296 Q584,324 686,308" stroke="#C4A26E" stroke-width="1.5" fill="none" opacity="0.7"/>
  <!-- Additional lower strings -->
  <path d="M86,330 Q183,360 286,326" stroke="#C4A26E" stroke-width="1.5" fill="none" opacity="0.5"/>
  <path d="M286,320 Q384,350 486,318" stroke="#C4A26E" stroke-width="1.5" fill="none" opacity="0.5"/>
  <path d="M486,318 Q584,345 686,328" stroke="#C4A26E" stroke-width="1.5" fill="none" opacity="0.5"/>
  <!-- Light bulbs (upper) -->
  <g fill="#FFE080" filter="url(#glow)">
    <circle cx="135" cy="330" r="5" opacity="0.9"/>
    <circle cx="185" cy="340" r="5" opacity="0.9"/>
    <circle cx="235" cy="332" r="5" opacity="0.9"/>
    <circle cx="335" cy="308" r="5" opacity="0.9"/>
    <circle cx="385" cy="318" r="5" opacity="0.9"/>
    <circle cx="435" cy="310" r="5" opacity="0.9"/>
    <circle cx="535" cy="304" r="5" opacity="0.9"/>
    <circle cx="585" cy="314" r="5" opacity="0.9"/>
    <circle cx="635" cy="315" r="5" opacity="0.9"/>
  </g>
  <!-- Glow halos for lights -->
  <g fill="#FFD060" opacity="0.12" filter="url(#bigglow)">
    <circle cx="135" cy="330" r="20"/>
    <circle cx="235" cy="332" r="20"/>
    <circle cx="385" cy="318" r="20"/>
    <circle cx="535" cy="304" r="20"/>
    <circle cx="635" cy="315" r="20"/>
  </g>
  <!-- Table with drinks -->
  <ellipse cx="400" cy="458" rx="100" ry="12" fill="#3B2F20"/>
  <rect x="370" y="425" width="60" height="35" rx="5" fill="#2A2015"/>
  <!-- Drinks on table -->
  <g transform="translate(370,420)">
    <polygon points="-14,0 14,0 7,38 -7,38" fill="#B0C8E0" opacity="0.55"/>
    <line x1="0" y1="38" x2="0" y2="58" stroke="#C0D8F0" stroke-width="2.5" opacity="0.7"/>
    <ellipse cx="0" cy="58" rx="12" ry="3" fill="#C0D8F0" opacity="0.5"/>
    <path d="M-10,8 L10,8 L7,34 L-7,34Z" fill="#8B4020" opacity="0.75"/>
  </g>
  <g transform="translate(430,422)">
    <polygon points="-12,0 12,0 6,36 -6,36" fill="#B0C8E0" opacity="0.55"/>
    <line x1="0" y1="36" x2="0" y2="55" stroke="#C0D8F0" stroke-width="2.5" opacity="0.7"/>
    <ellipse cx="0" cy="55" rx="10" ry="3" fill="#C0D8F0" opacity="0.5"/>
    <path d="M-8,8 L8,8 L5,32 L-5,32Z" fill="#506080" opacity="0.75"/>
  </g>
  <!-- Chairs at table -->
  <!-- Left chair -->
  <g transform="translate(285,448)" opacity="0.6">
    <rect x="-30" y="-60" width="60" height="50" rx="8" fill="#3B2F20"/>
    <rect x="-35" y="-80" width="70" height="24" rx="6" fill="#453525"/>
    <rect x="-38" y="-62" width="12" height="62" rx="4" fill="#3B2F20"/>
    <rect x="26" y="-62" width="12" height="62" rx="4" fill="#3B2F20"/>
  </g>
  <!-- Right chair -->
  <g transform="translate(515,448)" opacity="0.6">
    <rect x="-30" y="-60" width="60" height="50" rx="8" fill="#3B2F20"/>
    <rect x="-35" y="-80" width="70" height="24" rx="6" fill="#453525"/>
    <rect x="-38" y="-62" width="12" height="62" rx="4" fill="#3B2F20"/>
    <rect x="26" y="-62" width="12" height="62" rx="4" fill="#3B2F20"/>
  </g>
  <!-- Potted plants flanking terrace -->
  <g opacity="0.75">
    <rect x="20" y="420" width="30" height="32" rx="4" fill="#3B2F20"/>
    <ellipse cx="35" cy="420" rx="35" ry="55" fill="#2A4020"/>
    <rect x="750" y="420" width="30" height="32" rx="4" fill="#3B2F20"/>
    <ellipse cx="765" cy="420" rx="35" ry="55" fill="#2A4020"/>
  </g>
</svg>